<svg width="40" height="40" viewBox="0 0 40 40" fill="none" xmlns="http://www.w3.org/2000/svg">
<circle cx="20" cy="20" r="19.65" fill="white" fill-opacity="0.04" stroke="#575757" stroke-width="0.7"/>
<path d="M15.5 19C16.0304 19 16.5391 18.7893 16.9142 18.4142C17.2893 18.0391 17.5 17.5304 17.5 17C17.5 16.4696 17.2893 15.9609 16.9142 15.5858C16.5391 15.2107 16.0304 15 15.5 15H11V19H15.5ZM16.5 21H11V25H16.5C17.0304 25 17.5391 24.7893 17.9142 24.4142C18.2893 24.0391 18.5 23.5304 18.5 23C18.5 22.4696 18.2893 21.9609 17.9142 21.5858C17.5391 21.2107 17.0304 21 16.5 21ZM18.563 19.572C19.3125 20.0227 19.8937 20.7066 20.2175 21.5191C20.5413 22.3315 20.5899 23.2277 20.3559 24.0704C20.1218 24.9131 19.618 25.6559 18.9216 26.185C18.2252 26.7141 17.3746 27.0004 16.5 27H9V13H15.5C16.2617 12.9999 17.0075 13.2173 17.6498 13.6266C18.2922 14.0359 18.8043 14.6201 19.126 15.3105C19.4478 16.0008 19.5657 16.7687 19.4659 17.5238C19.3662 18.2789 19.0529 18.9898 18.563 19.573M23.5 14H29V15.5H23.5V14ZM31 22.5H23.5V22.75C23.4998 23.3677 23.7075 23.9676 24.0898 24.4528C24.4721 24.938 25.0066 25.2804 25.6073 25.4248C26.2079 25.5692 26.8396 25.5072 27.4007 25.2487C27.9617 24.9902 28.4194 24.5503 28.7 24H30.834C30.5293 25.1083 29.8333 26.0686 28.8748 26.703C27.9164 27.3374 26.7605 27.6029 25.6212 27.4503C24.482 27.2978 23.4367 26.7375 22.6789 25.8732C21.9212 25.009 21.5023 23.8994 21.5 22.75V21.25C21.5 19.9902 22.0004 18.782 22.8912 17.8912C23.782 17.0004 24.9902 16.5 26.25 16.5C27.5098 16.5 28.718 17.0004 29.6088 17.8912C30.4996 18.782 31 19.9902 31 21.25V22.5ZM28.896 20.5C28.7323 19.9245 28.3854 19.4181 27.9079 19.0575C27.4304 18.6969 26.8483 18.5018 26.25 18.5018C25.6517 18.5018 25.0696 18.6969 24.5921 19.0575C24.1146 19.4181 23.7677 19.9245 23.604 20.5H28.896Z" fill="#BABABA"/>
</svg>
