<svg width="30" height="36" viewBox="0 0 30 36" fill="none" xmlns="http://www.w3.org/2000/svg">
<rect width="30" height="36" fill="#F5F5F5"/>
<rect width="1600" height="3630" transform="translate(-1240 -48.2203)" fill="#191919"/>
<path fill-rule="evenodd" clip-rule="evenodd" d="M15 0C6.7125 0 0 8.07775 0 18.0508C0 26.0383 4.29375 32.7849 10.2563 35.1766C11.0063 35.3345 11.2875 34.793 11.2875 34.3192C11.2875 33.8905 11.2688 32.469 11.2688 30.9572C7.5 31.7921 6.525 29.8516 6.225 28.8362C6.05625 28.3173 5.325 26.7153 4.6875 26.2865C4.1625 25.9481 3.4125 25.1132 4.66875 25.0907C5.85 25.0681 6.69375 26.3994 6.975 26.9409C8.325 29.6711 10.4812 28.9039 11.3438 28.4301C11.475 27.2568 11.8688 26.4671 12.3 26.0158C8.9625 25.5645 5.475 24.0076 5.475 17.1032C5.475 15.1401 6.05625 13.5156 7.0125 12.252C6.8625 11.8007 6.3375 9.95053 7.1625 7.46854C7.1625 7.46854 8.41875 6.9947 11.2875 9.31875C12.4875 8.91261 13.7625 8.70953 15.0375 8.70953C16.3125 8.70953 17.5875 8.91261 18.7875 9.31875C21.6562 6.97214 22.9125 7.46854 22.9125 7.46854C23.7375 9.95053 23.2125 11.8007 23.0625 12.252C24.0188 13.5156 24.6 15.1176 24.6 17.1032C24.6 24.0302 21.0938 25.5645 17.7563 26.0158C18.3 26.5799 18.7688 27.6629 18.7688 29.3552C18.7688 31.7695 18.75 33.71 18.75 34.3192C18.75 34.793 19.0312 35.3571 19.7812 35.1766C22.759 33.9668 25.3465 31.6637 27.1796 28.5916C29.0127 25.5195 29.9991 21.8329 30 18.0508C30 8.07775 23.2875 0 15 0Z" fill="#A7A7A7"/>
</svg>
